Coordinates
version=1
nRows=65
nColumns=12
inDegrees=yes

Units are S.I. units (second, meters, Newtons, ...)
Angles are in degrees

endheader
time	SC_y	SC_z	SC_x	AC_y	AC_z	AC_x	GH_y	GH_z	GH_yy	EL_x	PS_y
       0.0              -23.04          32.59          31.94          41.16          5.349           12.0         -5.968         -4.798          70.85          122.9          23.72
  0.006724              -23.04          32.59          31.94          41.16          5.346           12.0         -5.982         -4.796          70.84          122.9          23.73
   0.01345              -23.05          32.58          31.94          41.17          5.343           12.0         -5.996         -4.795          70.83          122.9          23.75
   0.02017              -23.05          32.57          31.95          41.17           5.34          11.99         -6.012         -4.793          70.82          122.9          23.76
    0.0269              -23.06          32.57          31.95          41.17          5.336          11.99         -6.028         -4.791          70.81          122.9          23.78
   0.03362              -23.07          32.56          31.95          41.18          5.333          11.98         -6.045          -4.79          70.79          122.9          23.79
   0.04035              -23.07          32.56          31.96          41.18          5.329          11.98         -6.064         -4.788          70.78          122.9          23.81
   0.04707              -23.08          32.55          31.96          41.19          5.324          11.97         -6.084         -4.785          70.76          122.9          23.83
    0.0538              -23.09          32.54          31.97          41.19           5.32          11.96         -6.105         -4.783          70.75          122.9          23.85
   0.06052              -23.09          32.53          31.97           41.2          5.315          11.96         -6.128         -4.781          70.73          122.9          23.87
   0.06724               -23.1          32.52          31.98           41.2           5.31          11.95         -6.153         -4.778          70.71          122.9          23.89
   0.07397              -23.11          32.51          31.98          41.21          5.304          11.94         -6.179         -4.775          70.69          122.9          23.91
   0.08069              -23.12           32.5          31.99          41.21          5.298          11.93         -6.208         -4.772          70.67          122.9          23.94
   0.08742              -23.13          32.49          31.99          41.22          5.292          11.92         -6.239         -4.769          70.64          122.9          23.97
   0.09414              -23.14          32.48           32.0          41.23          5.285          11.91         -6.272         -4.765          70.61          122.9           24.0
    0.1009              -23.16          32.47          32.01          41.24          5.277           11.9         -6.308         -4.762          70.59          122.9          24.03
    0.1076              -23.17          32.45          32.02          41.24          5.269          11.89         -6.347         -4.757          70.55          122.9          24.07
    0.1143              -23.18          32.44          32.03          41.25           5.26          11.88          -6.39         -4.753          70.52          122.9          24.11
     0.121               -23.2          32.42          32.04          41.26           5.25          11.86         -6.437         -4.748          70.48          122.9          24.15
    0.1278              -23.22           32.4          32.05          41.28          5.239          11.85         -6.488         -4.742          70.44          122.9          24.19
    0.1345              -23.24          32.38          32.06          41.29          5.227          11.83         -6.544         -4.737           70.4          122.9          24.25
    0.1412              -23.26          32.36          32.07           41.3          5.214          11.81         -6.606          -4.73          70.35          122.9           24.3
    0.1479              -23.28          32.34          32.09          41.32          5.199          11.79         -6.675         -4.723           70.3          122.9          24.36
    0.1547              -23.31          32.31           32.1          41.34          5.183          11.77          -6.75         -4.715          70.24          122.9          24.43
    0.1614              -23.34          32.28          32.12          41.35          5.165          11.75         -6.835         -4.706          70.17          122.9          24.51
    0.1681              -23.37          32.25          32.14          41.37          5.146          11.72         -6.928         -4.696           70.1          122.9          24.59
    0.1748              -23.41          32.21          32.17           41.4          5.123          11.69         -7.034         -4.685          70.01          122.9          24.69
    0.1816              -23.45          32.17          32.19          41.43          5.098          11.65         -7.152         -4.672          69.92          122.9           24.8
    0.1883              -23.49          32.12          32.22          41.46           5.07          11.61         -7.286         -4.658          69.81          122.9          24.92
     0.195              -23.55          32.06          32.25          41.49          5.038          11.57         -7.438         -4.642          69.69          122.9          25.06
    0.2017              -23.61           32.0          32.29          41.53          5.001          11.52         -7.611         -4.623          69.56          122.9          25.22
    0.2085              -23.67          31.93          32.33          41.57          4.959          11.46          -7.81         -4.602           69.4          122.9           25.4
    0.2152              -23.75          31.85          32.38          41.62           4.91          11.39          -8.04         -4.578          69.22          122.9           25.6
    0.2219              -23.84          31.75          32.44          41.68          4.854          11.31         -8.306         -4.549          69.01          122.9          25.85
    0.2286              -23.95          31.64           32.5          41.75          4.787          11.22         -8.619         -4.516          68.76          123.0          26.13
    0.2354              -24.08          31.51          32.58          41.84          4.709          11.11         -8.987         -4.477          68.47          123.0          26.47
    0.2421              -24.23          31.35          32.68          41.93          4.617          10.98         -9.424         -4.431          68.13          123.0          26.86
    0.2488              -24.41          31.16          32.79          42.05          4.506          10.82         -9.948         -4.375          67.71          123.0          27.34
    0.2555              -24.63          30.94          32.93          42.19          4.371          10.63         -10.58         -4.308          67.21          123.0          27.92
    0.2623               -24.9          30.66          33.09          42.37          4.207           10.4         -11.36         -4.226           66.6          123.0          28.62
     0.269              -25.23          30.31           33.3          42.58          4.004          10.12         -12.31         -4.124          65.85          123.1          29.49
    0.2757              -25.64          29.89          33.55          42.85          3.752          9.765         -13.51         -3.997          64.91          123.1          30.57
    0.2824              -26.16          29.35          33.87          43.18          3.433          9.319         -15.01         -3.838          63.72          123.1          31.94
    0.2891              -26.81          28.66          34.28          43.61          3.029          8.752         -16.92         -3.635          62.22          123.2          33.68
    0.2959              -27.66          27.79          34.81          44.16          2.511          8.026         -19.36         -3.376          60.29          123.3           35.9
    0.3026              -28.74          26.66          35.48          44.86          1.846          7.094          -22.5         -3.043          57.81          123.4          38.75
    0.3093              -30.12          25.22          36.34          45.76         0.9969          5.904         -26.51         -2.617          54.65          123.5          42.39
     0.316              -31.85          23.42          37.42          46.89       -0.07064          4.407         -31.54         -2.082          50.68          123.6          46.97
    0.3228              -33.97          21.21          38.73          48.26         -1.372          2.584         -37.68          -1.43          45.83          123.8          52.55
    0.3295              -36.42          18.66          40.26          49.86          -2.88           0.47          -44.8        -0.6748          40.22          124.0          59.02
    0.3362              -39.08           15.9          41.91          51.58         -4.512         -1.819         -52.51         0.1433          34.14          124.3          66.02
    0.3429              -41.74          13.13          43.56          53.31         -6.145         -4.108         -60.21         0.9615          28.06          124.5          73.03
    0.3497              -44.19          10.58          45.08           54.9         -7.653         -6.221         -67.33          1.717          22.45          124.7           79.5
    0.3564              -46.31          8.379           46.4          56.28         -8.954         -8.045         -73.47          2.369          17.61          124.9          85.08
    0.3631              -48.04          6.572          47.48          57.41         -10.02         -9.542          -78.5          2.904          13.63          125.0          89.66
    0.3698              -49.42          5.134          48.34          58.31         -10.87         -10.73         -82.51          3.329          10.47          125.2           93.3
    0.3766               -50.5          4.009          49.01          59.01         -11.54         -11.66         -85.65          3.662          7.996          125.3          96.15
    0.3833              -51.35          3.132          49.53          59.56         -12.05         -12.39         -88.09          3.922          6.068          125.3          98.37
      0.39              -52.01          2.447          49.94          59.98         -12.46         -12.96          -90.0          4.125          4.561          125.4          100.1
    0.3967              -52.52          1.909          50.26          60.32         -12.78          -13.4          -91.5          4.284          3.376          125.4          101.5
    0.4035              -52.93          1.481          50.52          60.59         -13.03         -13.76          -92.7          4.411          2.435          125.5          102.6
    0.4102              -53.26          1.138          50.72           60.8         -13.23         -14.04         -93.65          4.512          1.681          125.5          103.4
    0.4169              -53.53         0.8599          50.89          60.98          -13.4         -14.27         -94.43          4.594           1.07          125.5          104.1
    0.4236              -53.75         0.6324          51.03          61.12         -13.53         -14.46         -95.06          4.662         0.5693          125.5          104.7
    0.4304              -53.93         0.4444          51.14          61.23         -13.64         -14.62         -95.59          4.717         0.1557          125.5          105.2
